<?xml version="1.0" encoding="UTF-8" standalone="no"?>
<svg width="32px" height="32px" viewBox="0 0 32 32" version="1.1" xmlns="http://www.w3.org/2000/svg" xmlns:xlink="http://www.w3.org/1999/xlink">
    <!-- Generator: Sketch 3.8.3 (29802) - http://www.bohemiancoding.com/sketch -->
    <title>Fill 217</title>
    <desc>Created with Sketch.</desc>
    <defs></defs>
    <g id="Page-1" stroke="none" stroke-width="1" fill="none" fill-rule="evenodd">
        <g id="Client-Collaboration-App" transform="translate(-1194.000000, -593.000000)" fill="#DFE1E7">
            <g id="Group-3-Copy" transform="translate(483.000000, 551.000000)">
                <path d="M719,52 C717.896,52 717,51.104 717,50 C717,48.896 717.896,48 719,48 C720.104,48 721,48.896 721,50 C721,51.104 720.104,52 719,52 L719,52 Z M719,46 C716.791,46 715,47.791 715,50 C715,52.209 716.791,54 719,54 C721.209,54 723,52.209 723,50 C723,47.791 721.209,46 719,46 L719,46 Z M741,59.128 L735,53 L725.059,63.111 L721,59 L713,66.337 L713,46 C713,44.896 713.896,44 715,44 L739,44 C740.104,44 741,44.896 741,46 L741,59.128 L741,59.128 Z M741,70 C741,71.104 740.104,72 739,72 L733.832,72 L726.464,64.535 L735,55.999 L741,61.999 L741,70 L741,70 Z M715,72 C713.896,72 713,71.104 713,70 L713,69.061 L720.945,61.945 L731.001,72 L715,72 L715,72 Z M739,42 L715,42 C712.791,42 711,43.791 711,46 L711,70 C711,72.209 712.791,74 715,74 L739,74 C741.209,74 743,72.209 743,70 L743,46 C743,43.791 741.209,42 739,42 L739,42 Z" id="Fill-217"></path>
            </g>
        </g>
    </g>
</svg>